<?xml version="1.0" standalone="no"?>
<!DOCTYPE svg PUBLIC "-//W3C//DTD SVG 20010904//EN"
 "http://www.w3.org/TR/2001/REC-SVG-20010904/DTD/svg10.dtd">
<svg version="1.0" xmlns="http://www.w3.org/2000/svg"
 width="512.000000pt" height="512.000000pt" viewBox="0 0 512.000000 512.000000"
 preserveAspectRatio="xMidYMid meet">
<metadata>
Created by potrace 1.11, written by Peter Selinger 2001-2013
</metadata>
<g transform="translate(0.000000,512.000000) scale(0.100000,-0.100000)"
fill="#000000" stroke="none">
<path d="M1146 4750 c-534 -61 -919 -351 -1065 -804 -43 -134 -55 -189 -70
-328 -9 -78 -6 -323 4 -373 48 -242 138 -461 276 -666 145 -216 202 -279 648
-709 123 -118 260 -250 305 -293 44 -44 133 -129 196 -190 149 -143 575 -554
754 -728 227 -220 259 -250 289 -265 37 -20 117 -20 153 0 32 17 45 29 388
360 132 127 256 247 276 266 20 19 138 132 261 251 123 119 247 238 274 264
408 388 723 699 795 785 30 36 58 67 61 70 16 13 150 204 191 270 100 164 173
343 209 512 38 177 31 455 -17 654 -100 422 -374 720 -788 858 -150 50 -291
70 -501 70 -213 1 -281 -11 -457 -79 -202 -78 -455 -245 -689 -456 -39 -35
-75 -64 -79 -64 -5 0 -43 32 -86 70 -154 139 -410 323 -543 390 -87 44 -223
93 -318 116 -101 24 -335 34 -467 19z"/>
</g>
</svg>
